inDegrees=no
num_controls=7
num_derivatives=13
num_iterations=99
num_multipliers=7
num_parameters=0
num_slacks=7
num_states=26
objective=5.744913
objective_accelerations=0.339653
objective_balance=0.030944
objective_effort=0.403508
objective_height=4.948387
objective_ligament=0.022420
solver_duration=853.089741
status=Solve_Succeeded
success=true
DataType=double
version=3
OpenSimVersion=4.4-2022-07-23-0e9fedc
endheader
time	/jointset/ground_pelvis/pelvis_tilt/value	/jointset/ground_pelvis/pelvis_tx/value	/jointset/ground_pelvis/pelvis_ty/value	/jointset/hip_r/hip_flexion_r/value	/jointset/hip_r/hip_adduction_r/value	/jointset/hip_r/hip_rotation_r/value	/jointset/back/lumbar_extension/value	/jointset/patellofemoral_r/patellar_flexion_r/value	/jointset/knee_r/knee_flexion_r/value	/jointset/knee_r/knee_adduction_r/value	/jointset/knee_r/knee_rotation_r/value	/jointset/ankle_r/ankle_angle_r/value	/jointset/subtalar_r/subtalar_angle_r/value	/jointset/ground_pelvis/pelvis_tilt/speed	/jointset/ground_pelvis/pelvis_tx/speed	/jointset/ground_pelvis/pelvis_ty/speed	/jointset/hip_r/hip_flexion_r/speed	/jointset/hip_r/hip_adduction_r/speed	/jointset/hip_r/hip_rotation_r/speed	/jointset/back/lumbar_extension/speed	/jointset/patellofemoral_r/patellar_flexion_r/speed	/jointset/knee_r/knee_flexion_r/speed	/jointset/knee_r/knee_adduction_r/speed	/jointset/knee_r/knee_rotation_r/speed	/jointset/ankle_r/ankle_angle_r/speed	/jointset/subtalar_r/subtalar_angle_r/speed	/forceset/tau_hip_flexion_r	/forceset/tau_hip_adduction_r	/forceset/tau_hip_rotation_r	/forceset/tau_knee_flexion_r	/forceset/tau_ankle_angle_r	/forceset/tau_subtalar_angle_r	/forceset/tau_lumbar_extension	lambda_cid13_p0	lambda_cid14_p0	lambda_cid14_p1	lambda_cid14_p2	lambda_cid14_p3	lambda_cid14_p4	lambda_cid14_p5	/jointset/ground_pelvis/pelvis_tilt/accel	/jointset/ground_pelvis/pelvis_tx/accel	/jointset/ground_pelvis/pelvis_ty/accel	/jointset/hip_r/hip_flexion_r/accel	/jointset/hip_r/hip_adduction_r/accel	/jointset/hip_r/hip_rotation_r/accel	/jointset/back/lumbar_extension/accel	/jointset/patellofemoral_r/patellar_flexion_r/accel	/jointset/knee_r/knee_flexion_r/accel	/jointset/knee_r/knee_adduction_r/accel	/jointset/knee_r/knee_rotation_r/accel	/jointset/ankle_r/ankle_angle_r/accel	/jointset/subtalar_r/subtalar_angle_r/accel	gamma_cid13_p0	gamma_cid14_p0	gamma_cid14_p1	gamma_cid14_p2	gamma_cid14_p3	gamma_cid14_p4	gamma_cid14_p5
0.5	-0.06937645334241549	0.06426376024109151	0.8759149675813195	0.6159187553195565	-0.2324249348280635	-0.138141037595249	-0.3084509274833032	0.6387841577985518	0.6387841577982817	0.05606077843494353	0.17451333099434	0.2601073013881929	0.05262408306520276	-0.1816608158569349	-0.06535898987159285	-0.2767286848677722	1.202568874218548	-0.006933359501541417	0.2531392388284421	-0.6044161952653259	1.545261814911686	1.545261814911322	-0.2591872406055251	-7.599030222649253e-05	0.6111056972693879	0.1623681781794791	-0.05443652798535164	-0.01263293393136823	0.006581709371405024	-0.3322957949139359	0.05713644037845175	-0.01745339507410478	0.1205541630198651	-34.67428740853439	-24.34698180323544	-8.050384229034856	-2.588647870667261	4.741338768172022	-672.879189034514	54.08339378751957	0.02802037764998429	0.2057030453757897	-0.3140368358080848	-0.7018365976764959	-0.01917309492005458	-0.5353333909386226	1.130597764358644	-0.9692969572604779	-0.9692969572604854	0.2971402252338772	-0.008146829718452549	-0.4044076536662728	-0.0019265564020984	-1.154794230357767e-07	-1.10149730281908e-07	8.685351282027363e-07	-9.490357436892643e-07	-2.937057815015227e-08	-1.28328125411407e-07	9.741677132446991e-07
0.51	-0.07119155600602416	0.0636205633336876	0.8731325465191704	0.6279076639119499	-0.2324958946228752	-0.1356364171838232	-0.3144375541791875	0.6541860333151478	0.654186033314951	0.05348534268463503	0.1745128111200928	0.2661970670134716	0.0542464735896592	-0.1813372549013558	-0.06327086868697475	-0.2796935744053099	1.195042918785825	-0.00725780019371376	0.247753489842484	-0.5928243409566657	1.534888137572732	1.53488813757239	-0.2558964779823504	-1.573640650625993e-05	0.6067635872507772	0.1620864138441379	-0.05905308538484413	-0.01090788530408776	0.007082699699968448	-0.3348758756646022	0.05269648466646073	-0.01648658003750929	0.1249067997389389	-33.86939551134751	-25.86350169355952	-8.001086174361546	-2.476505445642121	5.299783313990746	-675.5246597884268	54.02569650293024	0.03788304662754244	0.2117900552696878	-0.2784474024462619	-0.8034759221614527	-0.03904876809458008	-0.5450638904210923	1.186199706827318	-1.10515339195589	-1.105153391952567	0.3456205281295611	0.01479095406463244	-0.4617058920767689	-0.04480998183826747	-1.074649292683452e-07	-1.079760544178758e-07	7.745694148412551e-07	-9.332683252696288e-07	-2.078156350963209e-08	-1.249121344995136e-07	9.125863003878946e-07
0.52	-0.07300275124163998	0.06299853231818352	0.8703223300837009	0.6398162127687943	-0.2325700926669608	-0.1331866279098468	-0.3203057182434459	0.6694774220043751	0.6694774220042853	0.05094292981000233	0.1745132296758196	0.2722408928953407	0.05586534474881491	-0.180879330261201	-0.06112581149162399	-0.282287759531787	1.186496927109439	-0.00758100935506933	0.2421730113366636	-0.5807236689397492	1.523164449444058	1.523164449443738	-0.2525826654683652	0.0001116956831040454	0.6019177485874397	0.1616643051192691	-0.0636696427844302	-0.009182836676715173	0.007583690028882786	-0.3374559564153023	0.04825652895449332	-0.01551976500079088	0.1292594364579135	-33.04505982959679	-27.38738682379725	-7.948655564316961	-2.369914197176837	5.851809562620574	-678.2956103961319	54.03329752210013	0.05489311456461279	0.2170902475227876	-0.2398959535959489	-0.9058438464093149	-0.01892678875681333	-0.5742792949111588	1.232361306009715	-1.239299115204394	-1.239299115204395	0.3017502033961835	0.005288809059719853	-0.5051533826110803	-0.02999543430766102	-9.875319639288709e-08	-1.052105921965077e-07	6.737426514894313e-07	-9.124195921435137e-07	-1.186085144875445e-08	-1.210647436360158e-07	8.447882788935564e-07
0.53	-0.07480871330068727	0.06239822224770133	0.8674880606064401	0.6516342679814355	-0.2326475130979589	-0.1307929303767398	-0.3260504027828263	0.6846448949393874	0.6846448949394458	0.04843409488274538	0.1745147398636744	0.278233789080503	0.05747926886819043	-0.1802919712039772	-0.0589278407666361	-0.2845006390216592	1.176947308699618	-0.007907135023762465	0.2365836256717365	-0.5681352256599121	1.510110411640306	1.510110411640196	-0.2491453004622599	0.0001718973188013628	0.5965800483624401	0.1610883950064099	-0.06813911831003681	-0.007636377047885411	0.008102247752396048	-0.3402069997638523	0.04409619735072733	-0.01466045962070829	0.1335010766140465	-32.20455451583135	-28.82896332788712	-7.93364802717042	-2.251481366296916	6.364700235211471	-681.0912605475866	54.01277145778279	0.06381424035385373	0.2224033269122855	-0.2021832205952637	-1.004553448494462	-0.04016669818592065	-0.5488452415978095	1.283787829934414	-1.371396165190092	-1.371396165158503	0.3706195489148115	0.003467473932713189	-0.5603065995170592	-0.07621615082391237	-9.192249592245193e-08	-1.035796908180387e-07	5.961302815894118e-07	-8.943363605264218e-07	-3.894796313581635e-09	-1.208198543341446e-07	7.876004742620185e-07
0.54	-0.0766081703813382	0.06182014245285476	0.8646336224794968	0.6633518204879264	-0.2327283370340994	-0.1284546421081414	-0.3316668624912172	0.6996752394858923	0.6996752394861231	0.04596081158547459	0.174516268394549	0.2841708626120021	0.05908646841622776	-0.1795783345846938	-0.05667975636449969	-0.28632148946816	1.166396385880748	-0.008261710382872796	0.2310911584342377	-0.5550787027415729	1.495738771747375	1.495738771747477	-0.2454723394682619	0.0001153642788131365	0.5907532178545393	0.160319390851592	-0.07260859383576961	-0.006089917419046042	0.008620805476315637	-0.3429580431124415	0.03993586574695881	-0.013801154240622	0.1377427167700691	-31.35109454299456	-30.27780848549432	-7.9158504522049	-2.138134290158745	6.871337215191894	-684.0093811452722	54.05375282556094	0.08014862697603872	0.2271129829529323	-0.1614901449216851	-1.106104728219379	-0.02461672684032261	-0.5548956094255263	1.325977233709987	-1.50281953304015	-1.502819533040164	0.348869400974878	-0.01805812607729049	-0.6029794391908129	-0.0686142426993816	-8.717293768736138e-08	-1.032040482444793e-07	5.442019214658569e-07	-8.793128327065469e-07	3.015042648470922e-09	-1.245607114408817e-07	7.421516329680471e-07
